<svg width="367" height="105" viewBox="0 0 367 105" fill="none" xmlns="http://www.w3.org/2000/svg">
<path fill-rule="evenodd" clip-rule="evenodd" d="M95.1053 41.8321C95.1053 21.6357 80.2633 4.86403 61.4886 3.51565C59.9057 -0.280338 59.041 -0.177743 57.4972 3.60847C45.6598 3.60847 36.4312 10.2624 29.8456 19.5741C29.406 19.9942 28.9223 18.5921 26.9584 19.789C19.9087 23.6974 17.9545 54.9642 24.4179 61.1247C25.8982 62.9714 28.0869 62.0578 28.2872 61.8673C31.3748 67.2364 35.5811 71.5746 40.7597 74.8674C41.1994 75.1312 39.3429 75.4732 39.851 77.2027C40.5985 79.4695 52.4359 81.2722 57.9906 81.2722C63.5454 81.2722 73.5361 80.9742 77.4151 77.6033C78.656 76.2305 77.2344 75.439 77.1611 75.2094C87.9188 68.5164 95.1053 55.9901 95.1053 41.8272V41.8321ZM58.2154 74.9407C45.9969 74.9407 35.2929 68.4138 29.3766 58.6478C26.9681 46.9618 27.398 31.8414 31.194 20.8638C37.3448 12.6123 47.1596 7.27255 58.2154 7.27255C59.2413 4.20449 59.9595 4.91288 60.536 7.35071C78.0747 8.54764 91.9347 23.204 91.9347 41.1042C91.9347 59.0044 76.8338 74.9358 58.2154 74.9358V74.9407Z" fill="white"/>
<path d="M20.3986 81.4873C15.2103 81.4873 10.9941 77.2663 10.9941 72.0828C10.9941 66.8994 15.2152 62.6735 20.3986 62.6735C25.5821 62.6735 29.8031 66.8945 29.8031 72.0828C29.8031 77.2711 25.5821 81.4873 20.3986 81.4873ZM20.3986 63.5675C15.7037 63.5675 11.8833 67.3879 11.8833 72.0828C11.8833 76.7777 15.7037 80.5981 20.3986 80.5981C25.0935 80.5981 28.9139 76.7777 28.9139 72.0828C28.9139 67.3879 25.0935 63.5675 20.3986 63.5675Z" fill="white"/>
<path d="M10.5904 61.1981C6.98986 61.1981 4.05859 58.2668 4.05859 54.6662C4.05859 51.0657 6.98986 48.1344 10.5904 48.1344C14.191 48.1344 17.1223 51.0657 17.1223 54.6662C17.1223 58.2668 14.191 61.1981 10.5904 61.1981ZM10.5904 49.0284C7.4784 49.0284 4.94774 51.5591 4.94774 54.6711C4.94774 57.7831 7.4784 60.3138 10.5904 60.3138C13.7024 60.3138 16.2331 57.7831 16.2331 54.6711C16.2331 51.5591 13.7024 49.0284 10.5904 49.0284Z" fill="white"/>
<path d="M4.16728 43.2782C1.87112 43.2782 0 41.4119 0 39.1109C0 36.8098 1.86624 34.9436 4.16728 34.9436C6.46832 34.9436 8.33455 36.8147 8.33455 39.1109C8.33455 41.407 6.46832 43.2782 4.16728 43.2782ZM4.16728 35.8376C2.36455 35.8376 0.894035 37.3082 0.894035 39.1109C0.894035 40.9136 2.36455 42.3841 4.16728 42.3841C5.97 42.3841 7.44052 40.9136 7.44052 39.1109C7.44052 37.3082 5.97 35.8376 4.16728 35.8376Z" fill="white"/>
<path d="M12.957 45.4768C11.0321 45.4768 9.46875 43.9134 9.46875 41.9886C9.46875 40.0637 11.0321 38.5004 12.957 38.5004C14.8818 38.5004 16.4452 40.0637 16.4452 41.9886C16.4452 43.9134 14.8818 45.4768 12.957 45.4768ZM12.957 39.3895C11.5255 39.3895 10.3579 40.5522 10.3579 41.9886C10.3579 43.4249 11.5255 44.5876 12.957 44.5876C14.3884 44.5876 15.556 43.4249 15.556 41.9886C15.556 40.5522 14.3884 39.3895 12.957 39.3895Z" fill="white"/>
<path d="M94.5817 79.03H87.8789V78.859C88.5873 78.2336 89.2908 77.535 89.9992 76.7631C90.7076 75.9912 91.3134 75.2633 91.8214 74.5744C92.5347 73.6071 93.0477 72.7766 93.3604 72.0731C93.673 71.3745 93.8294 70.7149 93.8294 70.1092C93.8294 69.2884 93.5656 68.5898 93.0379 68.0231C92.5982 67.5492 92.0706 67.3147 91.455 67.3147C90.9225 67.3147 90.4535 67.4808 90.0529 67.813C89.7793 68.0328 89.5644 68.3113 89.4178 68.6582C89.2664 69.005 89.1931 69.3812 89.1931 69.7867C89.1931 70.456 89.4178 71.0081 89.8624 71.4429C90.0578 71.6383 90.2728 71.7897 90.5122 71.8972C90.7515 72.0047 90.986 72.0584 91.2205 72.0584C91.2645 72.0584 91.3329 72.0584 91.4257 72.0487L91.4795 72.1952C91.0593 72.4151 90.6929 72.5226 90.3851 72.5226C89.8966 72.5226 89.4618 72.3418 89.0758 71.9803C88.8413 71.7604 88.6606 71.4917 88.5336 71.1693C88.4065 70.8469 88.343 70.5 88.343 70.1336C88.343 69.2542 88.6606 68.5312 89.2908 67.9693C89.9454 67.3928 90.7711 67.1095 91.7677 67.1095C92.31 67.1095 92.8083 67.2023 93.2724 67.3831C93.7365 67.5638 94.1225 67.8228 94.4303 68.1647C94.7136 68.4628 94.9286 68.8145 95.0752 69.2151C95.2266 69.6157 95.2999 70.0359 95.2999 70.4756C95.2999 71.3403 94.997 72.2197 94.3961 73.1235C94.1029 73.5534 93.7512 73.9833 93.3359 74.4034C92.9207 74.8285 92.3491 75.3463 91.6114 75.9619C90.6685 76.7387 89.9943 77.3103 89.5839 77.6865H92.6959C93.2187 77.6865 93.59 77.6523 93.8098 77.5936C94.103 77.5155 94.3472 77.3689 94.5426 77.154C94.7625 76.9195 94.9384 76.5824 95.0703 76.1476L95.2608 76.1817L94.5817 79.0446V79.03Z" fill="white" stroke="white" stroke-width="0.5" stroke-miterlimit="5"/>
<path d="M11.78 101.692C12.4053 101.692 12.9093 101.538 13.292 101.23C13.684 100.922 13.88 100.469 13.88 99.872C13.88 99.396 13.7353 98.9993 13.446 98.682C13.1567 98.3553 12.6527 98.094 11.934 97.898L10.968 97.618C10.2587 97.422 9.71733 97.0907 9.344 96.624C8.97067 96.1573 8.784 95.588 8.784 94.916C8.784 94.468 8.88667 94.048 9.092 93.656C9.30667 93.264 9.62867 92.9467 10.058 92.704C10.4967 92.4613 11.052 92.34 11.724 92.34C12.4707 92.34 13.0727 92.48 13.53 92.76C13.9873 93.0307 14.3047 93.3853 14.482 93.824C14.6593 94.2627 14.7013 94.734 14.608 95.238L13.432 95.49C13.5533 94.622 13.4647 93.9547 13.166 93.488C12.8767 93.0213 12.3727 92.788 11.654 92.788C11.0847 92.788 10.6367 92.942 10.31 93.25C9.98333 93.5487 9.82 93.9873 9.82 94.566C9.82 95.0233 9.95067 95.4153 10.212 95.742C10.4733 96.0593 10.9353 96.3113 11.598 96.498L12.564 96.778C14.1227 97.2073 14.902 98.1173 14.902 99.508C14.902 100.003 14.7853 100.451 14.552 100.852C14.328 101.244 13.9827 101.557 13.516 101.79C13.0587 102.023 12.48 102.14 11.78 102.14C11.2947 102.14 10.828 102.065 10.38 101.916C9.94133 101.767 9.56333 101.51 9.246 101.146C8.938 100.782 8.73267 100.278 8.63 99.634L9.47 99.354C9.51667 99.97 9.652 100.446 9.876 100.782C10.1 101.118 10.38 101.356 10.716 101.496C11.052 101.627 11.4067 101.692 11.78 101.692ZM22.4599 98.388V98.668C22.4599 99.7227 22.1939 100.567 21.6619 101.202C21.1393 101.827 20.3926 102.14 19.4219 102.14C18.4606 102.14 17.7139 101.827 17.1819 101.202C16.6593 100.567 16.3979 99.7227 16.3979 98.668V98.388C16.3979 97.3427 16.6593 96.5073 17.1819 95.882C17.7046 95.2473 18.4513 94.93 19.4219 94.93C20.3926 94.93 21.1393 95.2473 21.6619 95.882C22.1939 96.5073 22.4599 97.3427 22.4599 98.388ZM21.1999 98.108C21.1999 97.1373 21.0459 96.442 20.7379 96.022C20.4393 95.5927 20.0006 95.378 19.4219 95.378C18.8526 95.378 18.4139 95.5927 18.1059 96.022C17.8073 96.442 17.6579 97.1373 17.6579 98.108V98.948C17.6579 99.928 17.8073 100.633 18.1059 101.062C18.4139 101.482 18.8526 101.692 19.4219 101.692C20.0006 101.692 20.4393 101.482 20.7379 101.062C21.0459 100.633 21.1999 99.928 21.1999 98.948V98.108ZM26.9489 95.378C26.4356 95.378 26.0342 95.5927 25.7449 96.022C25.4649 96.442 25.3249 97.1373 25.3249 98.108V98.948C25.3249 99.928 25.4649 100.633 25.7449 101.062C26.0342 101.482 26.5009 101.692 27.1449 101.692C27.5836 101.692 27.9382 101.58 28.2089 101.356C28.4796 101.132 28.6616 100.745 28.7549 100.194L29.4969 100.404C29.3289 101.039 29.0209 101.487 28.5729 101.748C28.1249 102.009 27.6256 102.14 27.0749 102.14C26.0669 102.14 25.3109 101.827 24.8069 101.202C24.3122 100.567 24.0649 99.7227 24.0649 98.668V98.388C24.0649 97.3427 24.3122 96.5073 24.8069 95.882C25.3016 95.2473 26.0156 94.93 26.9489 94.93C27.5462 94.93 28.0409 95.0467 28.4329 95.28C28.8342 95.5133 29.1189 95.8307 29.2869 96.232C29.4549 96.624 29.5016 97.058 29.4269 97.534L28.3209 97.702C28.4236 96.9553 28.3536 96.3813 28.1109 95.98C27.8776 95.5787 27.4902 95.378 26.9489 95.378ZM32.1982 93.502C31.9742 93.502 31.7876 93.432 31.6382 93.292C31.4982 93.1427 31.4282 92.9513 31.4282 92.718C31.4282 92.494 31.4982 92.312 31.6382 92.172C31.7876 92.032 31.9742 91.962 32.1982 91.962C32.4222 91.962 32.6042 92.032 32.7442 92.172C32.8936 92.312 32.9682 92.494 32.9682 92.718C32.9682 92.9513 32.8936 93.1427 32.7442 93.292C32.6042 93.432 32.4222 93.502 32.1982 93.502ZM30.5602 95.448V95.07H32.7862V100.866C32.7862 101.193 32.8002 101.384 32.8282 101.44C32.8562 101.496 32.9449 101.533 33.0942 101.552L33.8642 101.636V102H30.5602V101.636L31.3302 101.552C31.4796 101.533 31.5682 101.496 31.5962 101.44C31.6242 101.384 31.6382 101.193 31.6382 100.866V96.204C31.6382 95.8773 31.6242 95.686 31.5962 95.63C31.5682 95.574 31.4796 95.5367 31.3302 95.518L30.5602 95.448ZM40.5678 100.404C40.3998 101.039 40.0825 101.487 39.6158 101.748C39.1585 102.009 38.6498 102.14 38.0898 102.14C37.0538 102.14 36.2792 101.827 35.7658 101.202C35.2525 100.567 34.9958 99.7227 34.9958 98.668V98.388C34.9958 97.3427 35.2432 96.5073 35.7378 95.882C36.2325 95.2473 36.9512 94.93 37.8938 94.93C38.3978 94.93 38.8552 95.0327 39.2658 95.238C39.6858 95.4433 40.0172 95.7467 40.2598 96.148C40.5118 96.5493 40.6378 97.0487 40.6378 97.646C40.6378 97.926 40.6098 98.22 40.5538 98.528H36.2558V98.948C36.2558 99.928 36.4052 100.633 36.7038 101.062C37.0118 101.482 37.5065 101.692 38.1878 101.692C38.6172 101.692 38.9718 101.58 39.2518 101.356C39.5412 101.132 39.7325 100.745 39.8258 100.194L40.5678 100.404ZM37.8938 95.378C37.3432 95.378 36.9325 95.588 36.6618 96.008C36.3912 96.428 36.2558 97.1187 36.2558 98.08H39.4058V98.038C39.4245 97.9167 39.4385 97.8 39.4478 97.688C39.4572 97.5667 39.4618 97.4593 39.4618 97.366C39.4618 96.666 39.3172 96.162 39.0278 95.854C38.7385 95.5367 38.3605 95.378 37.8938 95.378ZM49.0573 101.65V102H46.9013V100.894C46.612 101.323 46.29 101.641 45.9353 101.846C45.59 102.042 45.2026 102.14 44.7733 102.14C43.9706 102.14 43.3453 101.841 42.8973 101.244C42.4586 100.637 42.2393 99.7833 42.2393 98.682V98.402C42.2393 97.3473 42.496 96.5073 43.0093 95.882C43.532 95.2473 44.246 94.93 45.1513 94.93C45.814 94.93 46.374 95.1353 46.8313 95.546V92.774C46.8313 92.4473 46.8173 92.256 46.7893 92.2C46.7613 92.144 46.6726 92.1067 46.5233 92.088L45.7533 92.018V91.64H47.9793V100.866C47.9793 101.193 47.9933 101.384 48.0213 101.44C48.0493 101.496 48.138 101.533 48.2873 101.552L49.0573 101.65ZM43.4993 99.102C43.4993 99.9793 43.6253 100.623 43.8773 101.034C44.1386 101.445 44.498 101.65 44.9553 101.65C45.254 101.65 45.562 101.557 45.8793 101.37C46.1966 101.183 46.514 100.805 46.8313 100.236V96.232C46.4206 95.6813 45.884 95.406 45.2213 95.406C44.624 95.406 44.1853 95.6347 43.9053 96.092C43.6346 96.5493 43.4993 97.1793 43.4993 97.982V99.102ZM55.5684 102.098C54.8404 102.098 54.4111 101.762 54.2804 101.09C53.9537 101.463 53.5944 101.734 53.2024 101.902C52.8104 102.061 52.4231 102.14 52.0404 102.14C51.3871 102.14 50.9064 101.958 50.5984 101.594C50.2904 101.23 50.1364 100.791 50.1364 100.278C50.1364 99.7273 50.3231 99.2933 50.6964 98.976C51.0791 98.6493 51.7371 98.486 52.6704 98.486H54.2524V97.352C54.2524 96.6053 54.1217 96.092 53.8604 95.812C53.6084 95.5227 53.2631 95.378 52.8244 95.378C52.5444 95.378 52.2924 95.434 52.0684 95.546C51.8444 95.658 51.6811 95.8633 51.5784 96.162C51.4851 96.4513 51.4757 96.876 51.5504 97.436L50.4444 97.268C50.3977 96.8293 50.4537 96.4373 50.6124 96.092C50.7804 95.7373 51.0511 95.4573 51.4244 95.252C51.8071 95.0373 52.2831 94.93 52.8524 94.93C53.5337 94.93 54.0564 95.0467 54.4204 95.28C54.7844 95.504 55.0364 95.798 55.1764 96.162C55.3257 96.526 55.4004 96.9227 55.4004 97.352V100.502C55.4004 100.978 55.4517 101.277 55.5544 101.398C55.6664 101.519 55.7877 101.58 55.9184 101.58C56.0024 101.58 56.0911 101.561 56.1844 101.524C56.2777 101.477 56.3804 101.407 56.4924 101.314L56.7444 101.664C56.6044 101.785 56.4364 101.888 56.2404 101.972C56.0537 102.056 55.8297 102.098 55.5684 102.098ZM52.4324 101.552C52.6937 101.552 52.9737 101.482 53.2724 101.342C53.5804 101.193 53.9071 100.899 54.2524 100.46V98.934H52.8244C52.3017 98.934 51.9191 99.0413 51.6764 99.256C51.4431 99.4613 51.3264 99.7833 51.3264 100.222C51.3264 100.642 51.4151 100.969 51.5924 101.202C51.7791 101.435 52.0591 101.552 52.4324 101.552ZM64.4589 101.65V102H62.3029V100.894C62.0136 101.323 61.6916 101.641 61.3369 101.846C60.9916 102.042 60.6043 102.14 60.1749 102.14C59.3723 102.14 58.7469 101.841 58.2989 101.244C57.8603 100.637 57.6409 99.7833 57.6409 98.682V98.402C57.6409 97.3473 57.8976 96.5073 58.4109 95.882C58.9336 95.2473 59.6476 94.93 60.5529 94.93C61.2156 94.93 61.7756 95.1353 62.2329 95.546V92.774C62.2329 92.4473 62.2189 92.256 62.1909 92.2C62.1629 92.144 62.0743 92.1067 61.9249 92.088L61.1549 92.018V91.64H63.3809V100.866C63.3809 101.193 63.3949 101.384 63.4229 101.44C63.4509 101.496 63.5396 101.533 63.6889 101.552L64.4589 101.65ZM58.9009 99.102C58.9009 99.9793 59.0269 100.623 59.2789 101.034C59.5403 101.445 59.8996 101.65 60.3569 101.65C60.6556 101.65 60.9636 101.557 61.2809 101.37C61.5983 101.183 61.9156 100.805 62.2329 100.236V96.232C61.8223 95.6813 61.2856 95.406 60.6229 95.406C60.0256 95.406 59.5869 95.6347 59.3069 96.092C59.0363 96.5493 58.9009 97.1793 58.9009 97.982V99.102ZM71.166 100.404C70.998 101.039 70.6807 101.487 70.214 101.748C69.7567 102.009 69.248 102.14 68.688 102.14C67.652 102.14 66.8774 101.827 66.364 101.202C65.8507 100.567 65.594 99.7227 65.594 98.668V98.388C65.594 97.3427 65.8414 96.5073 66.336 95.882C66.8307 95.2473 67.5494 94.93 68.492 94.93C68.996 94.93 69.4534 95.0327 69.864 95.238C70.284 95.4433 70.6154 95.7467 70.858 96.148C71.11 96.5493 71.236 97.0487 71.236 97.646C71.236 97.926 71.208 98.22 71.152 98.528H66.854V98.948C66.854 99.928 67.0034 100.633 67.302 101.062C67.61 101.482 68.1047 101.692 68.786 101.692C69.2154 101.692 69.57 101.58 69.85 101.356C70.1394 101.132 70.3307 100.745 70.424 100.194L71.166 100.404ZM68.492 95.378C67.9414 95.378 67.5307 95.588 67.26 96.008C66.9894 96.428 66.854 97.1187 66.854 98.08H70.004V98.038C70.0227 97.9167 70.0367 97.8 70.046 97.688C70.0554 97.5667 70.06 97.4593 70.06 97.366C70.06 96.666 69.9154 96.162 69.626 95.854C69.3367 95.5367 68.9587 95.378 68.492 95.378ZM75.6314 92.858V92.48H79.4394C80.354 92.48 81.04 92.6947 81.4974 93.124C81.9547 93.544 82.1834 94.0853 82.1834 94.748V95.126C82.1834 95.6113 82.0387 96.0267 81.7494 96.372C81.46 96.7173 81.054 96.96 80.5314 97.1C81.1847 97.212 81.6934 97.4593 82.0574 97.842C82.4214 98.2247 82.6034 98.7053 82.6034 99.284V99.662C82.6034 100.343 82.3654 100.903 81.8894 101.342C81.4227 101.781 80.7227 102 79.7894 102H75.6314V101.636L76.4014 101.552C76.5507 101.533 76.6394 101.496 76.6674 101.44C76.6954 101.384 76.7094 101.193 76.7094 100.866V93.614C76.7094 93.2873 76.6954 93.096 76.6674 93.04C76.6394 92.984 76.5507 92.9467 76.4014 92.928L75.6314 92.858ZM79.4394 92.928H77.9274V96.932H79.4394C80.41 96.932 80.8954 96.3673 80.8954 95.238V94.664C80.8954 93.5067 80.41 92.928 79.4394 92.928ZM79.7894 97.38H77.9274V101.552H79.7894C80.8067 101.552 81.3154 100.95 81.3154 99.746V99.172C81.3154 98.5933 81.1847 98.15 80.9234 97.842C80.6714 97.534 80.2934 97.38 79.7894 97.38ZM83.7859 95.448V95.07H85.9419V96.19C86.2686 95.7513 86.5953 95.434 86.9219 95.238C87.2579 95.0327 87.5986 94.93 87.9439 94.93C88.2426 94.93 88.5226 95.0187 88.7839 95.196C89.0453 95.3733 89.2646 95.658 89.4419 96.05L88.5319 96.596C88.3919 96.26 88.2333 96.0267 88.0559 95.896C87.8786 95.7653 87.6826 95.7 87.4679 95.7C87.2346 95.7 87.0013 95.7747 86.7679 95.924C86.5439 96.0733 86.2919 96.3533 86.0119 96.764V100.866C86.0119 101.193 86.0259 101.389 86.0539 101.454C86.0819 101.51 86.1706 101.543 86.3199 101.552L87.3699 101.636V102H83.7859V101.636L84.5559 101.552C84.7053 101.533 84.7939 101.496 84.8219 101.44C84.8499 101.384 84.8639 101.193 84.8639 100.866V96.204C84.8639 95.8773 84.8499 95.686 84.8219 95.63C84.7939 95.574 84.7053 95.5367 84.5559 95.518L83.7859 95.448ZM95.5389 102.098C94.8109 102.098 94.3816 101.762 94.2509 101.09C93.9243 101.463 93.5649 101.734 93.1729 101.902C92.7809 102.061 92.3936 102.14 92.0109 102.14C91.3576 102.14 90.8769 101.958 90.5689 101.594C90.2609 101.23 90.1069 100.791 90.1069 100.278C90.1069 99.7273 90.2936 99.2933 90.6669 98.976C91.0496 98.6493 91.7076 98.486 92.6409 98.486H94.2229V97.352C94.2229 96.6053 94.0923 96.092 93.8309 95.812C93.5789 95.5227 93.2336 95.378 92.7949 95.378C92.5149 95.378 92.2629 95.434 92.0389 95.546C91.8149 95.658 91.6516 95.8633 91.5489 96.162C91.4556 96.4513 91.4463 96.876 91.5209 97.436L90.4149 97.268C90.3683 96.8293 90.4243 96.4373 90.5829 96.092C90.7509 95.7373 91.0216 95.4573 91.3949 95.252C91.7776 95.0373 92.2536 94.93 92.8229 94.93C93.5043 94.93 94.0269 95.0467 94.3909 95.28C94.7549 95.504 95.0069 95.798 95.1469 96.162C95.2963 96.526 95.3709 96.9227 95.3709 97.352V100.502C95.3709 100.978 95.4223 101.277 95.5249 101.398C95.6369 101.519 95.7583 101.58 95.8889 101.58C95.9729 101.58 96.0616 101.561 96.1549 101.524C96.2483 101.477 96.3509 101.407 96.4629 101.314L96.7149 101.664C96.5749 101.785 96.4069 101.888 96.2109 101.972C96.0243 102.056 95.8003 102.098 95.5389 102.098ZM92.4029 101.552C92.6643 101.552 92.9443 101.482 93.2429 101.342C93.5509 101.193 93.8776 100.899 94.2229 100.46V98.934H92.7949C92.2723 98.934 91.8896 99.0413 91.6469 99.256C91.4136 99.4613 91.2969 99.7833 91.2969 100.222C91.2969 100.642 91.3856 100.969 91.5629 101.202C91.7496 101.435 92.0296 101.552 92.4029 101.552ZM100.145 99.172L99.2915 98.962C98.1248 98.6633 97.5415 97.9913 97.5415 96.946C97.5415 96.6007 97.6208 96.274 97.7795 95.966C97.9382 95.658 98.1902 95.4107 98.5355 95.224C98.8902 95.028 99.3428 94.93 99.8935 94.93C100.509 94.93 101.004 95.0327 101.377 95.238C101.751 95.4433 102.012 95.7093 102.161 96.036C102.311 96.3627 102.357 96.7173 102.301 97.1L101.209 97.296C101.321 96.6893 101.256 96.218 101.013 95.882C100.78 95.546 100.393 95.378 99.8515 95.378C99.4315 95.378 99.0955 95.4853 98.8435 95.7C98.5915 95.9053 98.4655 96.2087 98.4655 96.61C98.4655 96.9087 98.5588 97.1747 98.7455 97.408C98.9322 97.632 99.2448 97.8 99.6835 97.912L100.565 98.122C101.181 98.2713 101.657 98.5093 101.993 98.836C102.339 99.1627 102.511 99.592 102.511 100.124C102.511 100.721 102.292 101.207 101.853 101.58C101.424 101.953 100.808 102.14 100.005 102.14C99.6228 102.14 99.2495 102.084 98.8855 101.972C98.5308 101.851 98.2182 101.664 97.9475 101.412C97.6862 101.151 97.4948 100.815 97.3735 100.404L98.1575 100.124C98.2602 100.712 98.4842 101.123 98.8295 101.356C99.1748 101.589 99.5715 101.706 100.019 101.706C100.281 101.706 100.528 101.664 100.761 101.58C101.004 101.496 101.2 101.365 101.349 101.188C101.499 101.001 101.573 100.763 101.573 100.474C101.573 100.175 101.471 99.9187 101.265 99.704C101.06 99.4893 100.687 99.312 100.145 99.172ZM105.32 93.502C105.096 93.502 104.91 93.432 104.76 93.292C104.62 93.1427 104.55 92.9513 104.55 92.718C104.55 92.494 104.62 92.312 104.76 92.172C104.91 92.032 105.096 91.962 105.32 91.962C105.544 91.962 105.726 92.032 105.866 92.172C106.016 92.312 106.09 92.494 106.09 92.718C106.09 92.9513 106.016 93.1427 105.866 93.292C105.726 93.432 105.544 93.502 105.32 93.502ZM103.682 95.448V95.07H105.908V100.866C105.908 101.193 105.922 101.384 105.95 101.44C105.978 101.496 106.067 101.533 106.216 101.552L106.986 101.636V102H103.682V101.636L104.452 101.552C104.602 101.533 104.69 101.496 104.718 101.44C104.746 101.384 104.76 101.193 104.76 100.866V96.204C104.76 95.8773 104.746 95.686 104.718 95.63C104.69 95.574 104.602 95.5367 104.452 95.518L103.682 95.448ZM107.628 92.018V91.64H109.854V100.866C109.854 101.193 109.868 101.384 109.896 101.44C109.924 101.496 110.013 101.533 110.162 101.552L110.932 101.636V102H107.628V101.636L108.398 101.552C108.547 101.533 108.636 101.496 108.664 101.44C108.692 101.384 108.706 101.193 108.706 100.866V92.774C108.706 92.4473 108.692 92.256 108.664 92.2C108.636 92.144 108.547 92.1067 108.398 92.088L107.628 92.018ZM117.652 100.404C117.484 101.039 117.166 101.487 116.7 101.748C116.242 102.009 115.734 102.14 115.174 102.14C114.138 102.14 113.363 101.827 112.85 101.202C112.336 100.567 112.08 99.7227 112.08 98.668V98.388C112.08 97.3427 112.327 96.5073 112.822 95.882C113.316 95.2473 114.035 94.93 114.978 94.93C115.482 94.93 115.939 95.0327 116.35 95.238C116.77 95.4433 117.101 95.7467 117.344 96.148C117.596 96.5493 117.722 97.0487 117.722 97.646C117.722 97.926 117.694 98.22 117.638 98.528H113.34V98.948C113.34 99.928 113.489 100.633 113.788 101.062C114.096 101.482 114.59 101.692 115.272 101.692C115.701 101.692 116.056 101.58 116.336 101.356C116.625 101.132 116.816 100.745 116.91 100.194L117.652 100.404ZM114.978 95.378C114.427 95.378 114.016 95.588 113.746 96.008C113.475 96.428 113.34 97.1187 113.34 98.08H116.49V98.038C116.508 97.9167 116.522 97.8 116.532 97.688C116.541 97.5667 116.546 97.4593 116.546 97.366C116.546 96.666 116.401 96.162 116.112 95.854C115.822 95.5367 115.444 95.378 114.978 95.378ZM120.541 93.502C120.317 93.502 120.13 93.432 119.981 93.292C119.841 93.1427 119.771 92.9513 119.771 92.718C119.771 92.494 119.841 92.312 119.981 92.172C120.13 92.032 120.317 91.962 120.541 91.962C120.765 91.962 120.947 92.032 121.087 92.172C121.236 92.312 121.311 92.494 121.311 92.718C121.311 92.9513 121.236 93.1427 121.087 93.292C120.947 93.432 120.765 93.502 120.541 93.502ZM118.903 95.448V95.07H121.129V100.866C121.129 101.193 121.143 101.384 121.171 101.44C121.199 101.496 121.288 101.533 121.437 101.552L122.207 101.636V102H118.903V101.636L119.673 101.552C119.822 101.533 119.911 101.496 119.939 101.44C119.967 101.384 119.981 101.193 119.981 100.866V96.204C119.981 95.8773 119.967 95.686 119.939 95.63C119.911 95.574 119.822 95.5367 119.673 95.518L118.903 95.448ZM122.947 95.448V95.07H125.103V96.19C125.429 95.7513 125.756 95.434 126.083 95.238C126.419 95.0327 126.759 94.93 127.105 94.93C127.403 94.93 127.683 95.0187 127.945 95.196C128.206 95.3733 128.425 95.658 128.603 96.05L127.693 96.596C127.553 96.26 127.394 96.0267 127.217 95.896C127.039 95.7653 126.843 95.7 126.629 95.7C126.395 95.7 126.162 95.7747 125.929 95.924C125.705 96.0733 125.453 96.3533 125.173 96.764V100.866C125.173 101.193 125.187 101.389 125.215 101.454C125.243 101.51 125.331 101.543 125.481 101.552L126.531 101.636V102H122.947V101.636L123.717 101.552C123.866 101.533 123.955 101.496 123.983 101.44C124.011 101.384 124.025 101.193 124.025 100.866V96.204C124.025 95.8773 124.011 95.686 123.983 95.63C123.955 95.574 123.866 95.5367 123.717 95.518L122.947 95.448ZM134.7 102.098C133.972 102.098 133.542 101.762 133.412 101.09C133.085 101.463 132.726 101.734 132.334 101.902C131.942 102.061 131.554 102.14 131.172 102.14C130.518 102.14 130.038 101.958 129.73 101.594C129.422 101.23 129.268 100.791 129.268 100.278C129.268 99.7273 129.454 99.2933 129.828 98.976C130.21 98.6493 130.868 98.486 131.802 98.486H133.384V97.352C133.384 96.6053 133.253 96.092 132.992 95.812C132.74 95.5227 132.394 95.378 131.956 95.378C131.676 95.378 131.424 95.434 131.2 95.546C130.976 95.658 130.812 95.8633 130.71 96.162C130.616 96.4513 130.607 96.876 130.682 97.436L129.576 97.268C129.529 96.8293 129.585 96.4373 129.744 96.092C129.912 95.7373 130.182 95.4573 130.556 95.252C130.938 95.0373 131.414 94.93 131.984 94.93C132.665 94.93 133.188 95.0467 133.552 95.28C133.916 95.504 134.168 95.798 134.308 96.162C134.457 96.526 134.532 96.9227 134.532 97.352V100.502C134.532 100.978 134.583 101.277 134.686 101.398C134.798 101.519 134.919 101.58 135.05 101.58C135.134 101.58 135.222 101.561 135.316 101.524C135.409 101.477 135.512 101.407 135.624 101.314L135.876 101.664C135.736 101.785 135.568 101.888 135.372 101.972C135.185 102.056 134.961 102.098 134.7 102.098ZM131.564 101.552C131.825 101.552 132.105 101.482 132.404 101.342C132.712 101.193 133.038 100.899 133.384 100.46V98.934H131.956C131.433 98.934 131.05 99.0413 130.808 99.256C130.574 99.4613 130.458 99.7833 130.458 100.222C130.458 100.642 130.546 100.969 130.724 101.202C130.91 101.435 131.19 101.552 131.564 101.552ZM146.622 101.65V102H144.466V100.894C144.177 101.323 143.855 101.641 143.5 101.846C143.155 102.042 142.767 102.14 142.338 102.14C141.535 102.14 140.91 101.841 140.462 101.244C140.023 100.637 139.804 99.7833 139.804 98.682V98.402C139.804 97.3473 140.061 96.5073 140.574 95.882C141.097 95.2473 141.811 94.93 142.716 94.93C143.379 94.93 143.939 95.1353 144.396 95.546V92.774C144.396 92.4473 144.382 92.256 144.354 92.2C144.326 92.144 144.237 92.1067 144.088 92.088L143.318 92.018V91.64H145.544V100.866C145.544 101.193 145.558 101.384 145.586 101.44C145.614 101.496 145.703 101.533 145.852 101.552L146.622 101.65ZM141.064 99.102C141.064 99.9793 141.19 100.623 141.442 101.034C141.703 101.445 142.063 101.65 142.52 101.65C142.819 101.65 143.127 101.557 143.444 101.37C143.761 101.183 144.079 100.805 144.396 100.236V96.232C143.985 95.6813 143.449 95.406 142.786 95.406C142.189 95.406 141.75 95.6347 141.47 96.092C141.199 96.5493 141.064 97.1793 141.064 97.982V99.102ZM153.329 100.404C153.161 101.039 152.844 101.487 152.377 101.748C151.92 102.009 151.411 102.14 150.851 102.14C149.815 102.14 149.04 101.827 148.527 101.202C148.014 100.567 147.757 99.7227 147.757 98.668V98.388C147.757 97.3427 148.004 96.5073 148.499 95.882C148.994 95.2473 149.712 94.93 150.655 94.93C151.159 94.93 151.616 95.0327 152.027 95.238C152.447 95.4433 152.778 95.7467 153.021 96.148C153.273 96.5493 153.399 97.0487 153.399 97.646C153.399 97.926 153.371 98.22 153.315 98.528H149.017V98.948C149.017 99.928 149.166 100.633 149.465 101.062C149.773 101.482 150.268 101.692 150.949 101.692C151.378 101.692 151.733 101.58 152.013 101.356C152.302 101.132 152.494 100.745 152.587 100.194L153.329 100.404ZM150.655 95.378C150.104 95.378 149.694 95.588 149.423 96.008C149.152 96.428 149.017 97.1187 149.017 98.08H152.167V98.038C152.186 97.9167 152.2 97.8 152.209 97.688C152.218 97.5667 152.223 97.4593 152.223 97.366C152.223 96.666 152.078 96.162 151.789 95.854C151.5 95.5367 151.122 95.378 150.655 95.378ZM168.476 101.636V102H165.102V101.636L165.872 101.552C166.022 101.533 166.11 101.496 166.138 101.44C166.166 101.375 166.18 101.183 166.18 100.866V93.278L163.268 100.88H162.316L159.39 93.278V100.866C159.39 101.183 159.404 101.375 159.432 101.44C159.46 101.496 159.549 101.533 159.698 101.552L160.468 101.636V102H157.794V101.636L158.564 101.552C158.714 101.533 158.802 101.496 158.83 101.44C158.858 101.375 158.872 101.183 158.872 100.866V93.614C158.872 93.2967 158.858 93.11 158.83 93.054C158.802 92.9887 158.714 92.9467 158.564 92.928L157.794 92.858V92.48H160.356L163.17 99.83L165.984 92.48H168.476V92.858L167.706 92.928C167.557 92.9467 167.468 92.9887 167.44 93.054C167.412 93.11 167.398 93.2967 167.398 93.614V100.866C167.398 101.183 167.412 101.375 167.44 101.44C167.468 101.496 167.557 101.533 167.706 101.552L168.476 101.636ZM175.481 100.404C175.313 101.039 174.996 101.487 174.529 101.748C174.072 102.009 173.563 102.14 173.003 102.14C171.967 102.14 171.193 101.827 170.679 101.202C170.166 100.567 169.909 99.7227 169.909 98.668V98.388C169.909 97.3427 170.157 96.5073 170.651 95.882C171.146 95.2473 171.865 94.93 172.807 94.93C173.311 94.93 173.769 95.0327 174.179 95.238C174.599 95.4433 174.931 95.7467 175.173 96.148C175.425 96.5493 175.551 97.0487 175.551 97.646C175.551 97.926 175.523 98.22 175.467 98.528H171.169V98.948C171.169 99.928 171.319 100.633 171.617 101.062C171.925 101.482 172.42 101.692 173.101 101.692C173.531 101.692 173.885 101.58 174.165 101.356C174.455 101.132 174.646 100.745 174.739 100.194L175.481 100.404ZM172.807 95.378C172.257 95.378 171.846 95.588 171.575 96.008C171.305 96.428 171.169 97.1187 171.169 98.08H174.319V98.038C174.338 97.9167 174.352 97.8 174.361 97.688C174.371 97.5667 174.375 97.4593 174.375 97.366C174.375 96.666 174.231 96.162 173.941 95.854C173.652 95.5367 173.274 95.378 172.807 95.378ZM183.971 101.65V102H181.815V100.894C181.525 101.323 181.203 101.641 180.849 101.846C180.503 102.042 180.116 102.14 179.687 102.14C178.884 102.14 178.259 101.841 177.811 101.244C177.372 100.637 177.153 99.7833 177.153 98.682V98.402C177.153 97.3473 177.409 96.5073 177.923 95.882C178.445 95.2473 179.159 94.93 180.065 94.93C180.727 94.93 181.287 95.1353 181.745 95.546V92.774C181.745 92.4473 181.731 92.256 181.703 92.2C181.675 92.144 181.586 92.1067 181.437 92.088L180.667 92.018V91.64H182.893V100.866C182.893 101.193 182.907 101.384 182.935 101.44C182.963 101.496 183.051 101.533 183.201 101.552L183.971 101.65ZM178.413 99.102C178.413 99.9793 178.539 100.623 178.791 101.034C179.052 101.445 179.411 101.65 179.869 101.65C180.167 101.65 180.475 101.557 180.793 101.37C181.11 101.183 181.427 100.805 181.745 100.236V96.232C181.334 95.6813 180.797 95.406 180.135 95.406C179.537 95.406 179.099 95.6347 178.819 96.092C178.548 96.5493 178.413 97.1793 178.413 97.982V99.102ZM186.352 93.502C186.128 93.502 185.941 93.432 185.792 93.292C185.652 93.1427 185.582 92.9513 185.582 92.718C185.582 92.494 185.652 92.312 185.792 92.172C185.941 92.032 186.128 91.962 186.352 91.962C186.576 91.962 186.758 92.032 186.898 92.172C187.047 92.312 187.122 92.494 187.122 92.718C187.122 92.9513 187.047 93.1427 186.898 93.292C186.758 93.432 186.576 93.502 186.352 93.502ZM184.714 95.448V95.07H186.94V100.866C186.94 101.193 186.954 101.384 186.982 101.44C187.01 101.496 187.099 101.533 187.248 101.552L188.018 101.636V102H184.714V101.636L185.484 101.552C185.633 101.533 185.722 101.496 185.75 101.44C185.778 101.384 185.792 101.193 185.792 100.866V96.204C185.792 95.8773 185.778 95.686 185.75 95.63C185.722 95.574 185.633 95.5367 185.484 95.518L184.714 95.448ZM192.034 95.378C191.52 95.378 191.119 95.5927 190.83 96.022C190.55 96.442 190.41 97.1373 190.41 98.108V98.948C190.41 99.928 190.55 100.633 190.83 101.062C191.119 101.482 191.586 101.692 192.23 101.692C192.668 101.692 193.023 101.58 193.294 101.356C193.564 101.132 193.746 100.745 193.84 100.194L194.582 100.404C194.414 101.039 194.106 101.487 193.658 101.748C193.21 102.009 192.71 102.14 192.16 102.14C191.152 102.14 190.396 101.827 189.892 101.202C189.397 100.567 189.15 99.7227 189.15 98.668V98.388C189.15 97.3427 189.397 96.5073 189.892 95.882C190.386 95.2473 191.1 94.93 192.034 94.93C192.631 94.93 193.126 95.0467 193.518 95.28C193.919 95.5133 194.204 95.8307 194.372 96.232C194.54 96.624 194.586 97.058 194.512 97.534L193.406 97.702C193.508 96.9553 193.438 96.3813 193.196 95.98C192.962 95.5787 192.575 95.378 192.034 95.378ZM197.283 93.502C197.059 93.502 196.872 93.432 196.723 93.292C196.583 93.1427 196.513 92.9513 196.513 92.718C196.513 92.494 196.583 92.312 196.723 92.172C196.872 92.032 197.059 91.962 197.283 91.962C197.507 91.962 197.689 92.032 197.829 92.172C197.978 92.312 198.053 92.494 198.053 92.718C198.053 92.9513 197.978 93.1427 197.829 93.292C197.689 93.432 197.507 93.502 197.283 93.502ZM195.645 95.448V95.07H197.871V100.866C197.871 101.193 197.885 101.384 197.913 101.44C197.941 101.496 198.03 101.533 198.179 101.552L198.949 101.636V102H195.645V101.636L196.415 101.552C196.564 101.533 196.653 101.496 196.681 101.44C196.709 101.384 196.723 101.193 196.723 100.866V96.204C196.723 95.8773 196.709 95.686 196.681 95.63C196.653 95.574 196.564 95.5367 196.415 95.518L195.645 95.448ZM207.514 101.636V102H204.21V101.636L204.98 101.552C205.13 101.533 205.218 101.496 205.246 101.44C205.274 101.384 205.288 101.193 205.288 100.866V97.38C205.288 96.6893 205.176 96.204 204.952 95.924C204.728 95.6347 204.406 95.49 203.986 95.49C203.678 95.49 203.338 95.5833 202.964 95.77C202.591 95.9567 202.241 96.3207 201.914 96.862V100.866C201.914 101.193 201.928 101.384 201.956 101.44C201.984 101.496 202.073 101.533 202.222 101.552L202.992 101.636V102H199.688V101.636L200.458 101.552C200.608 101.533 200.696 101.496 200.724 101.44C200.752 101.384 200.766 101.193 200.766 100.866V96.204C200.766 95.8773 200.752 95.686 200.724 95.63C200.696 95.574 200.608 95.5367 200.458 95.518L199.688 95.448V95.07H201.844V96.204C202.18 95.756 202.558 95.434 202.978 95.238C203.408 95.0327 203.837 94.93 204.266 94.93C204.957 94.93 205.489 95.1447 205.862 95.574C206.245 95.994 206.436 96.5913 206.436 97.366V100.866C206.436 101.193 206.45 101.384 206.478 101.44C206.506 101.496 206.595 101.533 206.744 101.552L207.514 101.636ZM213.957 102.098C213.229 102.098 212.8 101.762 212.669 101.09C212.342 101.463 211.983 101.734 211.591 101.902C211.199 102.061 210.812 102.14 210.429 102.14C209.776 102.14 209.295 101.958 208.987 101.594C208.679 101.23 208.525 100.791 208.525 100.278C208.525 99.7273 208.712 99.2933 209.085 98.976C209.468 98.6493 210.126 98.486 211.059 98.486H212.641V97.352C212.641 96.6053 212.51 96.092 212.249 95.812C211.997 95.5227 211.652 95.378 211.213 95.378C210.933 95.378 210.681 95.434 210.457 95.546C210.233 95.658 210.07 95.8633 209.967 96.162C209.874 96.4513 209.864 96.876 209.939 97.436L208.833 97.268C208.786 96.8293 208.842 96.4373 209.001 96.092C209.169 95.7373 209.44 95.4573 209.813 95.252C210.196 95.0373 210.672 94.93 211.241 94.93C211.922 94.93 212.445 95.0467 212.809 95.28C213.173 95.504 213.425 95.798 213.565 96.162C213.714 96.526 213.789 96.9227 213.789 97.352V100.502C213.789 100.978 213.84 101.277 213.943 101.398C214.055 101.519 214.176 101.58 214.307 101.58C214.391 101.58 214.48 101.561 214.573 101.524C214.666 101.477 214.769 101.407 214.881 101.314L215.133 101.664C214.993 101.785 214.825 101.888 214.629 101.972C214.442 102.056 214.218 102.098 213.957 102.098ZM210.821 101.552C211.082 101.552 211.362 101.482 211.661 101.342C211.969 101.193 212.296 100.899 212.641 100.46V98.934H211.213C210.69 98.934 210.308 99.0413 210.065 99.256C209.832 99.4613 209.715 99.7833 209.715 100.222C209.715 100.642 209.804 100.969 209.981 101.202C210.168 101.435 210.448 101.552 210.821 101.552ZM229.505 101.636V102H226.131V101.636L226.901 101.552C227.051 101.533 227.139 101.496 227.167 101.44C227.195 101.375 227.209 101.183 227.209 100.866V93.278L224.297 100.88H223.345L220.419 93.278V100.866C220.419 101.183 220.433 101.375 220.461 101.44C220.489 101.496 220.578 101.533 220.727 101.552L221.497 101.636V102H218.823V101.636L219.593 101.552C219.743 101.533 219.831 101.496 219.859 101.44C219.887 101.375 219.901 101.183 219.901 100.866V93.614C219.901 93.2967 219.887 93.11 219.859 93.054C219.831 92.9887 219.743 92.9467 219.593 92.928L218.823 92.858V92.48H221.385L224.199 99.83L227.013 92.48H229.505V92.858L228.735 92.928C228.586 92.9467 228.497 92.9887 228.469 93.054C228.441 93.11 228.427 93.2967 228.427 93.614V100.866C228.427 101.183 228.441 101.375 228.469 101.44C228.497 101.496 228.586 101.533 228.735 101.552L229.505 101.636ZM236.314 102.098C235.586 102.098 235.157 101.762 235.026 101.09C234.7 101.463 234.34 101.734 233.948 101.902C233.556 102.061 233.169 102.14 232.786 102.14C232.133 102.14 231.652 101.958 231.344 101.594C231.036 101.23 230.882 100.791 230.882 100.278C230.882 99.7273 231.069 99.2933 231.442 98.976C231.825 98.6493 232.483 98.486 233.416 98.486H234.998V97.352C234.998 96.6053 234.868 96.092 234.606 95.812C234.354 95.5227 234.009 95.378 233.57 95.378C233.29 95.378 233.038 95.434 232.814 95.546C232.59 95.658 232.427 95.8633 232.324 96.162C232.231 96.4513 232.222 96.876 232.296 97.436L231.19 97.268C231.144 96.8293 231.2 96.4373 231.358 96.092C231.526 95.7373 231.797 95.4573 232.17 95.252C232.553 95.0373 233.029 94.93 233.598 94.93C234.28 94.93 234.802 95.0467 235.166 95.28C235.53 95.504 235.782 95.798 235.922 96.162C236.072 96.526 236.146 96.9227 236.146 97.352V100.502C236.146 100.978 236.198 101.277 236.3 101.398C236.412 101.519 236.534 101.58 236.664 101.58C236.748 101.58 236.837 101.561 236.93 101.524C237.024 101.477 237.126 101.407 237.238 101.314L237.49 101.664C237.35 101.785 237.182 101.888 236.986 101.972C236.8 102.056 236.576 102.098 236.314 102.098ZM233.178 101.552C233.44 101.552 233.72 101.482 234.018 101.342C234.326 101.193 234.653 100.899 234.998 100.46V98.934H233.57C233.048 98.934 232.665 99.0413 232.422 99.256C232.189 99.4613 232.072 99.7833 232.072 100.222C232.072 100.642 232.161 100.969 232.338 101.202C232.525 101.435 232.805 101.552 233.178 101.552ZM237.967 95.448V95.07H240.123V96.19C240.45 95.7513 240.776 95.434 241.103 95.238C241.439 95.0327 241.78 94.93 242.125 94.93C242.424 94.93 242.704 95.0187 242.965 95.196C243.226 95.3733 243.446 95.658 243.623 96.05L242.713 96.596C242.573 96.26 242.414 96.0267 242.237 95.896C242.06 95.7653 241.864 95.7 241.649 95.7C241.416 95.7 241.182 95.7747 240.949 95.924C240.725 96.0733 240.473 96.3533 240.193 96.764V100.866C240.193 101.193 240.207 101.389 240.235 101.454C240.263 101.51 240.352 101.543 240.501 101.552L241.551 101.636V102H237.967V101.636L238.737 101.552C238.886 101.533 238.975 101.496 239.003 101.44C239.031 101.384 239.045 101.193 239.045 100.866V96.204C239.045 95.8773 239.031 95.686 239.003 95.63C238.975 95.574 238.886 95.5367 238.737 95.518L237.967 95.448ZM243.979 95.448V95.07H246.205V100.866C246.205 101.193 246.219 101.384 246.247 101.44C246.275 101.496 246.364 101.533 246.513 101.552L247.283 101.636V102H243.979V101.636L244.749 101.552C244.899 101.533 244.987 101.496 245.015 101.44C245.043 101.384 245.057 101.193 245.057 100.866V96.204C245.057 95.8773 245.043 95.686 245.015 95.63C244.987 95.574 244.899 95.5367 244.749 95.518L243.979 95.448ZM245.533 93.894L245.239 93.628C245.463 93.3107 245.645 93.0073 245.785 92.718C245.935 92.4287 246.065 92.0693 246.177 91.64H247.521C247.241 92.0693 246.943 92.4613 246.625 92.816C246.317 93.1707 245.953 93.53 245.533 93.894ZM252.643 100.572C252.503 101.113 252.284 101.51 251.985 101.762C251.686 102.014 251.304 102.14 250.837 102.14C250.389 102.14 250.025 102.042 249.745 101.846C249.465 101.641 249.26 101.375 249.129 101.048C248.998 100.721 248.933 100.381 248.933 100.026V96.204C248.933 95.8773 248.919 95.686 248.891 95.63C248.872 95.574 248.784 95.5367 248.625 95.518L247.855 95.448V95.07H248.933V93.236L250.081 92.998V95.07H252.363V95.518H250.081V100.138C250.081 100.726 250.16 101.132 250.319 101.356C250.487 101.58 250.706 101.692 250.977 101.692C251.248 101.692 251.453 101.589 251.593 101.384C251.742 101.179 251.85 100.843 251.915 100.376L252.643 100.572ZM254.935 93.502C254.711 93.502 254.524 93.432 254.375 93.292C254.235 93.1427 254.165 92.9513 254.165 92.718C254.165 92.494 254.235 92.312 254.375 92.172C254.524 92.032 254.711 91.962 254.935 91.962C255.159 91.962 255.341 92.032 255.481 92.172C255.63 92.312 255.705 92.494 255.705 92.718C255.705 92.9513 255.63 93.1427 255.481 93.292C255.341 93.432 255.159 93.502 254.935 93.502ZM253.297 95.448V95.07H255.523V100.866C255.523 101.193 255.537 101.384 255.565 101.44C255.593 101.496 255.682 101.533 255.831 101.552L256.601 101.636V102H253.297V101.636L254.067 101.552C254.216 101.533 254.305 101.496 254.333 101.44C254.361 101.384 254.375 101.193 254.375 100.866V96.204C254.375 95.8773 254.361 95.686 254.333 95.63C254.305 95.574 254.216 95.5367 254.067 95.518L253.297 95.448ZM265.027 101.636V102H261.723V101.636L262.493 101.552C262.642 101.533 262.731 101.496 262.759 101.44C262.787 101.384 262.801 101.193 262.801 100.866V97.38C262.801 96.6893 262.693 96.204 262.479 95.924C262.273 95.6347 261.97 95.49 261.569 95.49C261.279 95.49 260.953 95.5833 260.589 95.77C260.234 95.9567 259.893 96.316 259.567 96.848V100.866C259.567 101.193 259.581 101.384 259.609 101.44C259.637 101.496 259.725 101.533 259.875 101.552L260.645 101.636V102H257.341V101.636L258.111 101.552C258.26 101.533 258.349 101.496 258.377 101.44C258.405 101.384 258.419 101.193 258.419 100.866V96.204C258.419 95.8773 258.405 95.686 258.377 95.63C258.349 95.574 258.26 95.5367 258.111 95.518L257.341 95.448V95.07H259.497V96.204C259.823 95.7653 260.192 95.4433 260.603 95.238C261.023 95.0327 261.438 94.93 261.849 94.93C262.857 94.93 263.505 95.392 263.795 96.316C264.14 95.8307 264.523 95.4807 264.943 95.266C265.372 95.042 265.801 94.93 266.231 94.93C266.893 94.93 267.407 95.1447 267.771 95.574C268.144 95.994 268.331 96.5913 268.331 97.366V100.866C268.331 101.193 268.345 101.384 268.373 101.44C268.401 101.496 268.489 101.533 268.639 101.552L269.409 101.636V102H266.105V101.636L266.875 101.552C267.024 101.533 267.113 101.496 267.141 101.44C267.169 101.384 267.183 101.193 267.183 100.866V97.38C267.183 96.6893 267.075 96.204 266.861 95.924C266.655 95.6347 266.352 95.49 265.951 95.49C265.661 95.49 265.33 95.588 264.957 95.784C264.593 95.9707 264.247 96.3393 263.921 96.89C263.93 96.9647 263.935 97.044 263.935 97.128C263.944 97.2027 263.949 97.282 263.949 97.366V100.866C263.949 101.193 263.963 101.384 263.991 101.44C264.019 101.496 264.107 101.533 264.257 101.552L265.027 101.636ZM275.847 102.098C275.119 102.098 274.69 101.762 274.559 101.09C274.233 101.463 273.873 101.734 273.481 101.902C273.089 102.061 272.702 102.14 272.319 102.14C271.666 102.14 271.185 101.958 270.877 101.594C270.569 101.23 270.415 100.791 270.415 100.278C270.415 99.7273 270.602 99.2933 270.975 98.976C271.358 98.6493 272.016 98.486 272.949 98.486H274.531V97.352C274.531 96.6053 274.401 96.092 274.139 95.812C273.887 95.5227 273.542 95.378 273.103 95.378C272.823 95.378 272.571 95.434 272.347 95.546C272.123 95.658 271.96 95.8633 271.857 96.162C271.764 96.4513 271.755 96.876 271.829 97.436L270.723 97.268C270.677 96.8293 270.733 96.4373 270.891 96.092C271.059 95.7373 271.33 95.4573 271.703 95.252C272.086 95.0373 272.562 94.93 273.131 94.93C273.813 94.93 274.335 95.0467 274.699 95.28C275.063 95.504 275.315 95.798 275.455 96.162C275.605 96.526 275.679 96.9227 275.679 97.352V100.502C275.679 100.978 275.731 101.277 275.833 101.398C275.945 101.519 276.067 101.58 276.197 101.58C276.281 101.58 276.37 101.561 276.463 101.524C276.557 101.477 276.659 101.407 276.771 101.314L277.023 101.664C276.883 101.785 276.715 101.888 276.519 101.972C276.333 102.056 276.109 102.098 275.847 102.098ZM272.711 101.552C272.973 101.552 273.253 101.482 273.551 101.342C273.859 101.193 274.186 100.899 274.531 100.46V98.934H273.103C272.581 98.934 272.198 99.0413 271.955 99.256C271.722 99.4613 271.605 99.7833 271.605 100.222C271.605 100.642 271.694 100.969 271.871 101.202C272.058 101.435 272.338 101.552 272.711 101.552ZM286.496 100.404C286.328 101.039 286.011 101.487 285.544 101.748C285.087 102.009 284.578 102.14 284.018 102.14C282.982 102.14 282.207 101.827 281.694 101.202C281.181 100.567 280.924 99.7227 280.924 98.668V98.388C280.924 97.3427 281.171 96.5073 281.666 95.882C282.161 95.2473 282.879 94.93 283.822 94.93C284.326 94.93 284.783 95.0327 285.194 95.238C285.614 95.4433 285.945 95.7467 286.188 96.148C286.44 96.5493 286.566 97.0487 286.566 97.646C286.566 97.926 286.538 98.22 286.482 98.528H282.184V98.948C282.184 99.928 282.333 100.633 282.632 101.062C282.94 101.482 283.435 101.692 284.116 101.692C284.545 101.692 284.9 101.58 285.18 101.356C285.469 101.132 285.661 100.745 285.754 100.194L286.496 100.404ZM283.822 95.378C283.271 95.378 282.861 95.588 282.59 96.008C282.319 96.428 282.184 97.1187 282.184 98.08H285.334V98.038C285.353 97.9167 285.367 97.8 285.376 97.688C285.385 97.5667 285.39 97.4593 285.39 97.366C285.39 96.666 285.245 96.162 284.956 95.854C284.667 95.5367 284.289 95.378 283.822 95.378ZM299.781 101.636V102H296.407V101.636L297.177 101.552C297.327 101.533 297.415 101.496 297.443 101.44C297.471 101.384 297.485 101.193 297.485 100.866V97.422H293.257V100.866C293.257 101.193 293.271 101.384 293.299 101.44C293.327 101.496 293.416 101.533 293.565 101.552L294.335 101.636V102H290.961V101.636L291.731 101.552C291.881 101.533 291.969 101.496 291.997 101.44C292.025 101.384 292.039 101.193 292.039 100.866V93.614C292.039 93.2873 292.025 93.096 291.997 93.04C291.969 92.984 291.881 92.9467 291.731 92.928L290.961 92.858V92.48H294.335V92.858L293.565 92.928C293.416 92.9467 293.327 92.984 293.299 93.04C293.271 93.096 293.257 93.2873 293.257 93.614V96.974H297.485V93.614C297.485 93.2873 297.471 93.096 297.443 93.04C297.415 92.984 297.327 92.9467 297.177 92.928L296.407 92.858V92.48H299.781V92.858L299.011 92.928C298.862 92.9467 298.773 92.984 298.745 93.04C298.717 93.096 298.703 93.2873 298.703 93.614V100.866C298.703 101.193 298.717 101.384 298.745 101.44C298.773 101.496 298.862 101.533 299.011 101.552L299.781 101.636ZM302.435 93.502C302.211 93.502 302.025 93.432 301.875 93.292C301.735 93.1427 301.665 92.9513 301.665 92.718C301.665 92.494 301.735 92.312 301.875 92.172C302.025 92.032 302.211 91.962 302.435 91.962C302.659 91.962 302.841 92.032 302.981 92.172C303.131 92.312 303.205 92.494 303.205 92.718C303.205 92.9513 303.131 93.1427 302.981 93.292C302.841 93.432 302.659 93.502 302.435 93.502ZM300.797 95.448V95.07H303.023V100.866C303.023 101.193 303.037 101.384 303.065 101.44C303.093 101.496 303.182 101.533 303.331 101.552L304.101 101.636V102H300.797V101.636L301.567 101.552C301.717 101.533 301.805 101.496 301.833 101.44C301.861 101.384 301.875 101.193 301.875 100.866V96.204C301.875 95.8773 301.861 95.686 301.833 95.63C301.805 95.574 301.717 95.5367 301.567 95.518L300.797 95.448ZM304.743 95.434V95.07H306.899V96.19C307.179 95.7513 307.492 95.434 307.837 95.238C308.192 95.0327 308.584 94.93 309.013 94.93C309.816 94.93 310.436 95.2333 310.875 95.84C311.323 96.4467 311.547 97.296 311.547 98.388V98.668C311.547 99.732 311.29 100.577 310.777 101.202C310.264 101.827 309.55 102.14 308.635 102.14C307.982 102.14 307.426 101.939 306.969 101.538V103.848C306.969 104.165 306.983 104.352 307.011 104.408C307.039 104.473 307.128 104.515 307.277 104.534L308.327 104.604V104.982H304.743V104.604L305.513 104.534C305.662 104.515 305.751 104.473 305.779 104.408C305.807 104.352 305.821 104.165 305.821 103.848V96.204C305.821 95.8773 305.807 95.686 305.779 95.63C305.751 95.574 305.662 95.5367 305.513 95.518L304.743 95.434ZM308.831 95.434C308.542 95.434 308.238 95.5273 307.921 95.714C307.613 95.9007 307.296 96.2787 306.969 96.848V100.852C307.37 101.403 307.902 101.678 308.565 101.678C309.172 101.678 309.61 101.449 309.881 100.992C310.152 100.525 310.287 99.8907 310.287 99.088V97.968C310.287 97.0907 310.161 96.4513 309.909 96.05C309.657 95.6393 309.298 95.434 308.831 95.434ZM318.786 100.404C318.618 101.039 318.301 101.487 317.834 101.748C317.377 102.009 316.868 102.14 316.308 102.14C315.272 102.14 314.497 101.827 313.984 101.202C313.471 100.567 313.214 99.7227 313.214 98.668V98.388C313.214 97.3427 313.461 96.5073 313.956 95.882C314.451 95.2473 315.169 94.93 316.112 94.93C316.616 94.93 317.073 95.0327 317.484 95.238C317.904 95.4433 318.235 95.7467 318.478 96.148C318.73 96.5493 318.856 97.0487 318.856 97.646C318.856 97.926 318.828 98.22 318.772 98.528H314.474V98.948C314.474 99.928 314.623 100.633 314.922 101.062C315.23 101.482 315.725 101.692 316.406 101.692C316.835 101.692 317.19 101.58 317.47 101.356C317.759 101.132 317.951 100.745 318.044 100.194L318.786 100.404ZM316.112 95.378C315.561 95.378 315.151 95.588 314.88 96.008C314.609 96.428 314.474 97.1187 314.474 98.08H317.624V98.038C317.643 97.9167 317.657 97.8 317.666 97.688C317.675 97.5667 317.68 97.4593 317.68 97.366C317.68 96.666 317.535 96.162 317.246 95.854C316.957 95.5367 316.579 95.378 316.112 95.378ZM320.038 95.448V95.07H322.194V96.19C322.52 95.7513 322.847 95.434 323.174 95.238C323.51 95.0327 323.85 94.93 324.196 94.93C324.494 94.93 324.774 95.0187 325.036 95.196C325.297 95.3733 325.516 95.658 325.694 96.05L324.784 96.596C324.644 96.26 324.485 96.0267 324.308 95.896C324.13 95.7653 323.934 95.7 323.72 95.7C323.486 95.7 323.253 95.7747 323.02 95.924C322.796 96.0733 322.544 96.3533 322.264 96.764V100.866C322.264 101.193 322.278 101.389 322.306 101.454C322.334 101.51 322.422 101.543 322.572 101.552L323.622 101.636V102H320.038V101.636L320.808 101.552C320.957 101.533 321.046 101.496 321.074 101.44C321.102 101.384 321.116 101.193 321.116 100.866V96.204C321.116 95.8773 321.102 95.686 321.074 95.63C321.046 95.574 320.957 95.5367 320.808 95.518L320.038 95.448ZM325.772 92.018V91.64H327.998V96.078C328.269 95.6767 328.577 95.3873 328.922 95.21C329.267 95.0233 329.641 94.93 330.042 94.93C330.845 94.93 331.465 95.2333 331.904 95.84C332.352 96.4467 332.576 97.296 332.576 98.388V98.668C332.576 99.732 332.319 100.577 331.806 101.202C331.302 101.827 330.593 102.14 329.678 102.14C328.95 102.14 328.353 101.902 327.886 101.426C327.755 101.501 327.634 101.594 327.522 101.706C327.41 101.818 327.298 101.939 327.186 102.07H326.85V92.774C326.85 92.4473 326.836 92.256 326.808 92.2C326.78 92.144 326.691 92.1067 326.542 92.088L325.772 92.018ZM329.86 95.434C329.571 95.434 329.267 95.5273 328.95 95.714C328.642 95.9007 328.325 96.2787 327.998 96.848V100.852C328.399 101.403 328.931 101.678 329.594 101.678C330.201 101.678 330.639 101.449 330.91 100.992C331.181 100.525 331.316 99.8907 331.316 99.088V97.968C331.316 97.0907 331.19 96.4513 330.938 96.05C330.686 95.6393 330.327 95.434 329.86 95.434ZM339.621 102.098C338.893 102.098 338.464 101.762 338.333 101.09C338.007 101.463 337.647 101.734 337.255 101.902C336.863 102.061 336.476 102.14 336.093 102.14C335.44 102.14 334.959 101.958 334.651 101.594C334.343 101.23 334.189 100.791 334.189 100.278C334.189 99.7273 334.376 99.2933 334.749 98.976C335.132 98.6493 335.79 98.486 336.723 98.486H338.305V97.352C338.305 96.6053 338.175 96.092 337.913 95.812C337.661 95.5227 337.316 95.378 336.877 95.378C336.597 95.378 336.345 95.434 336.121 95.546C335.897 95.658 335.734 95.8633 335.631 96.162C335.538 96.4513 335.529 96.876 335.603 97.436L334.497 97.268C334.451 96.8293 334.507 96.4373 334.665 96.092C334.833 95.7373 335.104 95.4573 335.477 95.252C335.86 95.0373 336.336 94.93 336.905 94.93C337.587 94.93 338.109 95.0467 338.473 95.28C338.837 95.504 339.089 95.798 339.229 96.162C339.379 96.526 339.453 96.9227 339.453 97.352V100.502C339.453 100.978 339.505 101.277 339.607 101.398C339.719 101.519 339.841 101.58 339.971 101.58C340.055 101.58 340.144 101.561 340.237 101.524C340.331 101.477 340.433 101.407 340.545 101.314L340.797 101.664C340.657 101.785 340.489 101.888 340.293 101.972C340.107 102.056 339.883 102.098 339.621 102.098ZM336.485 101.552C336.747 101.552 337.027 101.482 337.325 101.342C337.633 101.193 337.96 100.899 338.305 100.46V98.934H336.877C336.355 98.934 335.972 99.0413 335.729 99.256C335.496 99.4613 335.379 99.7833 335.379 100.222C335.379 100.642 335.468 100.969 335.645 101.202C335.832 101.435 336.112 101.552 336.485 101.552ZM336.947 93.894L336.653 93.628C336.877 93.3107 337.059 93.0073 337.199 92.718C337.349 92.4287 337.479 92.0693 337.591 91.64H338.935C338.655 92.0693 338.357 92.4613 338.039 92.816C337.731 93.1707 337.367 93.53 336.947 93.894ZM341.274 95.448V95.07H343.43V96.19C343.756 95.7513 344.083 95.434 344.41 95.238C344.746 95.0327 345.086 94.93 345.432 94.93C345.73 94.93 346.01 95.0187 346.272 95.196C346.533 95.3733 346.752 95.658 346.93 96.05L346.02 96.596C345.88 96.26 345.721 96.0267 345.544 95.896C345.366 95.7653 345.17 95.7 344.956 95.7C344.722 95.7 344.489 95.7747 344.256 95.924C344.032 96.0733 343.78 96.3533 343.5 96.764V100.866C343.5 101.193 343.514 101.389 343.542 101.454C343.57 101.51 343.658 101.543 343.808 101.552L344.858 101.636V102H341.274V101.636L342.044 101.552C342.193 101.533 342.282 101.496 342.31 101.44C342.338 101.384 342.352 101.193 342.352 100.866V96.204C342.352 95.8773 342.338 95.686 342.31 95.63C342.282 95.574 342.193 95.5367 342.044 95.518L341.274 95.448ZM348.924 93.502C348.7 93.502 348.514 93.432 348.364 93.292C348.224 93.1427 348.154 92.9513 348.154 92.718C348.154 92.494 348.224 92.312 348.364 92.172C348.514 92.032 348.7 91.962 348.924 91.962C349.148 91.962 349.33 92.032 349.47 92.172C349.62 92.312 349.694 92.494 349.694 92.718C349.694 92.9513 349.62 93.1427 349.47 93.292C349.33 93.432 349.148 93.502 348.924 93.502ZM347.286 95.448V95.07H349.512V100.866C349.512 101.193 349.526 101.384 349.554 101.44C349.582 101.496 349.671 101.533 349.82 101.552L350.59 101.636V102H347.286V101.636L348.056 101.552C348.206 101.533 348.294 101.496 348.322 101.44C348.35 101.384 348.364 101.193 348.364 100.866V96.204C348.364 95.8773 348.35 95.686 348.322 95.63C348.294 95.574 348.206 95.5367 348.056 95.518L347.286 95.448ZM354.606 95.378C354.092 95.378 353.691 95.5927 353.402 96.022C353.122 96.442 352.982 97.1373 352.982 98.108V98.948C352.982 99.928 353.122 100.633 353.402 101.062C353.691 101.482 354.158 101.692 354.802 101.692C355.24 101.692 355.595 101.58 355.866 101.356C356.136 101.132 356.318 100.745 356.412 100.194L357.154 100.404C356.986 101.039 356.678 101.487 356.23 101.748C355.782 102.009 355.282 102.14 354.732 102.14C353.724 102.14 352.968 101.827 352.464 101.202C351.969 100.567 351.722 99.7227 351.722 98.668V98.388C351.722 97.3427 351.969 96.5073 352.464 95.882C352.958 95.2473 353.672 94.93 354.606 94.93C355.203 94.93 355.698 95.0467 356.09 95.28C356.491 95.5133 356.776 95.8307 356.944 96.232C357.112 96.624 357.158 97.058 357.084 97.534L355.978 97.702C356.08 96.9553 356.01 96.3813 355.768 95.98C355.534 95.5787 355.147 95.378 354.606 95.378ZM363.985 102.098C363.257 102.098 362.828 101.762 362.697 101.09C362.37 101.463 362.011 101.734 361.619 101.902C361.227 102.061 360.84 102.14 360.457 102.14C359.804 102.14 359.323 101.958 359.015 101.594C358.707 101.23 358.553 100.791 358.553 100.278C358.553 99.7273 358.74 99.2933 359.113 98.976C359.496 98.6493 360.154 98.486 361.087 98.486H362.669V97.352C362.669 96.6053 362.538 96.092 362.277 95.812C362.025 95.5227 361.68 95.378 361.241 95.378C360.961 95.378 360.709 95.434 360.485 95.546C360.261 95.658 360.098 95.8633 359.995 96.162C359.902 96.4513 359.892 96.876 359.967 97.436L358.861 97.268C358.814 96.8293 358.87 96.4373 359.029 96.092C359.197 95.7373 359.468 95.4573 359.841 95.252C360.224 95.0373 360.7 94.93 361.269 94.93C361.95 94.93 362.473 95.0467 362.837 95.28C363.201 95.504 363.453 95.798 363.593 96.162C363.742 96.526 363.817 96.9227 363.817 97.352V100.502C363.817 100.978 363.868 101.277 363.971 101.398C364.083 101.519 364.204 101.58 364.335 101.58C364.419 101.58 364.508 101.561 364.601 101.524C364.694 101.477 364.797 101.407 364.909 101.314L365.161 101.664C365.021 101.785 364.853 101.888 364.657 101.972C364.47 102.056 364.246 102.098 363.985 102.098ZM360.849 101.552C361.11 101.552 361.39 101.482 361.689 101.342C361.997 101.193 362.324 100.899 362.669 100.46V98.934H361.241C360.718 98.934 360.336 99.0413 360.093 99.256C359.86 99.4613 359.743 99.7833 359.743 100.222C359.743 100.642 359.832 100.969 360.009 101.202C360.196 101.435 360.476 101.552 360.849 101.552Z" fill="white"/>
<path d="M110.941 73.6263L111.073 55.4037L112.089 55.4476C113.326 60.0839 114.796 63.7382 116.501 66.4105C119.706 71.34 123.736 73.8071 128.592 73.8071C131.973 73.8071 134.768 72.6737 136.976 70.4117C139.184 68.1449 140.283 65.2771 140.283 61.8085C140.283 60.3086 140.039 58.7795 139.555 57.221C139.072 55.6626 138.417 54.324 137.591 53.2052C136.737 52.0571 135.54 50.953 133.996 49.8978C132.452 48.8376 130.092 47.499 126.912 45.8819C124.117 44.47 121.978 43.278 120.492 42.3058C119.007 41.3336 117.805 40.3516 116.897 39.3501C114.366 36.585 113.101 33.214 113.101 29.247C113.101 26.8043 113.594 24.4544 114.581 22.1876C115.568 19.9207 116.941 17.9812 118.704 16.3641C121.821 13.4817 125.515 12.0405 129.78 12.0405C131.162 12.0405 132.442 12.1822 133.62 12.4607C134.797 12.7391 136.37 13.2912 138.339 14.1168C139.809 14.7031 140.811 15.0793 141.339 15.2405C141.866 15.4017 142.34 15.4848 142.75 15.4848C143.781 15.4848 144.47 14.7373 144.827 13.2326H145.843L146.151 30.7517H145.135C144.343 27.9573 143.659 25.8175 143.088 24.3323C142.516 22.8471 141.832 21.4694 141.041 20.2041C139.604 17.9079 138.017 16.2127 136.282 15.1086C134.548 14.0045 132.555 13.4524 130.293 13.4524C127.005 13.4524 124.406 14.5712 122.495 16.8087C121.704 17.7223 121.079 18.7971 120.624 20.0331C120.17 21.2691 119.94 22.5051 119.94 23.7411C119.94 28.6608 123.096 32.618 129.413 35.6225L135.623 38.6271C140.41 40.8939 143.859 43.3953 145.975 46.136C148.383 49.1992 149.585 52.7606 149.585 56.8253C149.585 59.527 149.043 62.1065 147.953 64.5736C146.424 68.0081 144.128 70.656 141.07 72.5222C138.012 74.3836 134.406 75.3167 130.258 75.3167C126.462 75.3167 122.818 74.5643 119.315 73.0645C117.493 72.2682 116.403 71.8138 116.052 71.6966C115.7 71.5793 115.299 71.5207 114.86 71.5207C113.448 71.5207 112.475 72.2291 111.948 73.641H110.932L110.941 73.6263Z" fill="white"/>
<path d="M155.508 73.8021V72.786C157.213 72.698 158.591 72.4537 159.631 72.058C160.677 71.6623 161.595 71.0516 162.391 70.226C163.334 69.2831 163.964 68.0911 164.287 66.6498C164.609 65.2086 164.771 62.9711 164.771 59.9421V27.4247C164.771 24.3957 164.609 22.1582 164.287 20.717C163.964 19.2758 163.329 18.0837 162.391 17.1457C161.595 16.2908 160.672 15.6752 159.612 15.2941C158.551 14.9131 157.184 14.6786 155.508 14.5858V13.5696H184.498C187.439 13.5696 189.369 13.5989 190.277 13.6575C193.634 13.9213 196.414 14.7177 198.617 16.0416C200.527 17.219 202.007 18.7628 203.053 20.673C204.098 22.5832 204.616 24.7328 204.616 27.1169C204.616 30.9715 203.424 34.1324 201.04 36.6044C200.185 37.518 199.218 38.2752 198.128 38.8761C197.039 39.4819 195.466 40.1464 193.409 40.8841C196.233 41.3531 198.426 41.8709 199.985 42.4279C201.543 42.9848 202.955 43.7665 204.22 44.768C206.101 46.2971 207.567 48.2024 208.612 50.4839C209.658 52.7654 210.181 55.2277 210.181 57.8756C210.181 60.5235 209.643 63.0004 208.569 65.2233C207.494 67.4462 206.004 69.2294 204.089 70.5826C202.354 71.7893 200.288 72.6296 197.889 73.0986C195.49 73.5676 192.114 73.807 187.761 73.807H155.508V73.8021ZM174.439 14.9424V41.1528H178.015C179.691 41.1528 181.425 41.0355 183.223 40.801C184.781 40.5665 186.042 40.288 186.994 39.9607C187.952 39.6383 188.826 39.1937 189.623 38.6368C191.123 37.518 192.276 36.0866 193.087 34.3327C193.898 32.5837 194.298 30.6491 194.298 28.5288C194.298 26.2961 193.878 24.1661 193.038 22.1533C192.197 20.1405 191.088 18.5723 189.706 17.4535C188.499 16.4813 187.126 15.8218 185.583 15.47C184.039 15.1183 181.694 14.9424 178.548 14.9424H174.444H174.439ZM174.439 42.5207V60.6994C174.439 62.9076 174.595 64.6859 174.903 66.0392C175.211 67.3924 175.719 68.5405 176.427 69.4785C177.927 71.4473 180.502 72.4342 184.151 72.4342C188.885 72.4342 192.627 71.1396 195.383 68.5503C198.133 65.961 199.506 62.4337 199.506 57.9587C199.506 55.3987 199.081 53.0244 198.226 50.8308C197.371 48.6421 196.228 46.9567 194.787 45.7793C192.139 43.6004 187.991 42.5158 182.344 42.5158H174.444L174.439 42.5207Z" fill="white"/>
<path d="M292.515 14.5858C290.839 14.6737 289.49 14.9033 288.479 15.2697C287.463 15.6361 286.53 16.2468 285.675 17.1017C285.025 17.7173 284.542 18.4013 284.219 19.1536C283.897 19.906 283.672 20.8538 283.555 22.0018C283.349 23.531 283.247 25.3386 283.247 27.4296V59.947C283.247 62.976 283.423 65.2282 283.775 66.6987C284.126 68.1692 284.761 69.3466 285.67 70.2309C287.287 71.7893 289.569 72.6443 292.51 72.7908V73.807H264.316V72.7908C266.021 72.7029 267.399 72.4586 268.439 72.0629C269.485 71.6672 270.418 71.0565 271.238 70.2309C272.152 69.288 272.777 68.091 273.114 66.6352C273.452 65.1793 273.623 62.9516 273.623 59.9519V20.502L250.896 73.8021H249.967L227.377 21.2935V59.947C227.377 62.976 227.543 65.2135 227.885 66.6547C228.222 68.0959 228.848 69.288 229.761 70.2309C230.582 71.0858 231.52 71.7014 232.56 72.0824C233.606 72.4635 234.964 72.698 236.645 72.7908V73.807H216.302V72.7908C217.977 72.7029 219.34 72.4684 220.381 72.0824C221.427 71.7014 222.36 71.0809 223.18 70.2309C224.094 69.288 224.719 68.091 225.056 66.6352C225.394 65.1793 225.565 62.9516 225.565 59.9519V27.4344C225.565 26.0812 225.521 24.8012 225.433 23.5945C225.286 21.4156 224.949 19.8278 224.416 18.8263C223.684 17.4437 222.672 16.4227 221.392 15.7583C220.112 15.0938 218.412 14.7079 216.297 14.5906V13.5745H235.448L254.555 60.7433L274.365 13.5745H292.5V14.5906L292.515 14.5858Z" fill="white"/>
<path d="M315.809 41.5924H347.139V27.4296C347.139 24.4006 346.968 22.1631 346.631 20.7219C346.294 19.2807 345.669 18.0886 344.755 17.1506C343.93 16.2957 342.996 15.6801 341.951 15.299C340.905 14.918 339.533 14.6835 337.828 14.5906V13.5745H366.021V14.5906C364.346 14.6786 362.983 14.9131 361.937 15.299C360.892 15.6801 359.959 16.3005 359.138 17.1506C358.224 18.0935 357.599 19.2904 357.262 20.7463C356.925 22.2021 356.754 24.4299 356.754 27.4296V59.947C356.754 62.9467 356.925 65.1696 357.262 66.6108C357.599 68.052 358.224 69.2587 359.138 70.2309C359.959 71.0565 360.897 71.6623 361.937 72.0629C362.983 72.4586 364.341 72.7029 366.021 72.7908V73.807H337.828V72.7908C339.533 72.7029 340.91 72.4586 341.951 72.0629C342.996 71.6672 343.93 71.0565 344.755 70.2309C345.669 69.288 346.294 68.0959 346.631 66.6547C346.968 65.2135 347.139 62.976 347.139 59.947V43.6639H315.809V59.947C315.809 62.9467 315.98 65.1744 316.317 66.6303C316.654 68.0862 317.28 69.2831 318.193 70.226C318.989 71.0516 319.908 71.6574 320.953 72.058C321.999 72.4537 323.372 72.698 325.077 72.786V73.8021H296.883V72.786C298.588 72.698 299.966 72.4537 301.006 72.058C302.052 71.6623 302.97 71.0516 303.766 70.226C304.709 69.2831 305.339 68.0911 305.662 66.6498C305.984 65.2086 306.146 62.9711 306.146 59.9421V27.4247C306.146 24.3957 305.984 22.1582 305.662 20.717C305.339 19.2758 304.704 18.0837 303.766 17.1457C302.97 16.2908 302.047 15.6752 300.987 15.2941C299.926 14.9131 298.559 14.6786 296.883 14.5858V13.5696H325.077V14.5858C323.401 14.6737 322.038 14.9082 320.997 15.2941C319.952 15.6752 319.019 16.2957 318.193 17.1457C317.28 18.0886 316.654 19.2855 316.317 20.7414C315.98 22.1973 315.809 24.425 315.809 27.4247V41.5876V41.5924Z" fill="white"/>
</svg>
